<svg viewBox="0 0 169 24" fill="none" xmlns="http://www.w3.org/2000/svg" class="fronntui-logo">
  <rect x="126.582" width="42.3503" height="24" rx="4" fill="#e6eafa"></rect>
  <path
    d="M138.638 6.88672C138.889 6.88672 139.019 7.01251 139.019 7.26827V12.9915C139.019 13.3228 139.04 13.5953 139.087 13.8091C139.128 14.023 139.212 14.1907 139.326 14.3123C139.443 14.4339 139.602 14.5177 139.808 14.568C140.013 14.6183 140.273 14.6393 140.596 14.6393H144.642C144.965 14.6393 145.225 14.6142 145.43 14.568C145.636 14.5177 145.795 14.4339 145.913 14.3123C146.03 14.1907 146.114 14.023 146.16 13.8091C146.21 13.5953 146.231 13.3228 146.231 12.9915V7.26827C146.231 7.0167 146.357 6.88672 146.613 6.88672H148.495C148.747 6.88672 148.877 7.01251 148.877 7.26827V13.2557C148.877 13.9559 148.801 14.5513 148.65 15.046C148.5 15.5366 148.261 15.9349 147.933 16.2452C147.606 16.5513 147.183 16.7735 146.655 16.9076C146.131 17.046 145.493 17.1131 144.743 17.1131H140.495C139.745 17.1131 139.108 17.046 138.583 16.9076C138.059 16.7735 137.632 16.5513 137.305 16.2452C136.978 15.9391 136.739 15.5408 136.588 15.046C136.437 14.5555 136.361 13.9601 136.361 13.2557V7.26827C136.361 7.0167 136.487 6.88672 136.743 6.88672H138.642H138.638Z"
    fill="#002dcd"></path>
  <path
    d="M158.772 6.88672C159.024 6.88672 159.154 7.01251 159.154 7.26827V16.7274C159.154 16.9789 159.028 17.1089 158.772 17.1089H156.873C156.621 17.1089 156.491 16.9831 156.491 16.7274V7.26827C156.491 7.0167 156.617 6.88672 156.873 6.88672H158.772Z"
    fill="#002dcd"></path>
  <path
    d="M89.7606 0H87.4126C87.0813 0 86.9052 0.1761 86.9052 0.507336V6.18027L83.4461 1.12788C82.8801 0.306079 82.5447 0 81.2742 0H79.899C78.6118 0 78.0374 0.6457 78.0374 2.09643V9.71066C78.0374 10.0419 78.2135 10.218 78.5447 10.218H80.8927C81.2239 10.218 81.4 10.0419 81.4 9.71066V4.03353L84.8885 9.09011C85.4545 9.91191 85.7899 10.218 87.0604 10.218H88.3979C89.6767 10.218 90.2721 9.55133 90.2721 8.12156V0.507336C90.2721 0.1761 90.096 0 89.7648 0H89.7606Z"
    fill="#002dcd"></path>
  <path
    d="M89.7606 13.782H87.4126C87.0813 13.782 86.9052 13.9581 86.9052 14.2893V19.9623L83.4461 14.9099C82.8801 14.0881 82.5447 13.782 81.2742 13.782H79.899C78.6118 13.782 78.0374 14.4277 78.0374 15.8784V23.4926C78.0374 23.8239 78.2135 24 78.5447 24H80.8927C81.2239 24 81.4 23.8239 81.4 23.4926V17.8155L84.8885 22.8721C85.4545 23.6939 85.7899 24 87.0604 24H88.3979C89.6767 24 90.2721 23.3333 90.2721 21.9035V14.2893C90.2721 13.9581 90.096 13.782 89.7648 13.782H89.7606Z"
    fill="#002dcd"></path>
  <path
    d="M14.176 5.14885C14.5157 5.14885 14.6834 5.31657 14.6834 5.65619V7.84905C14.6834 8.20125 14.5157 8.37735 14.176 8.37735H5.67713C5.24526 8.37735 4.89306 8.41089 4.62053 8.47379C4.34799 8.53668 4.12996 8.65827 3.97483 8.83437C3.81969 9.01047 3.71068 9.24946 3.65198 9.54716C3.59328 9.84904 3.56393 10.239 3.56393 10.7212H14.0586C14.3983 10.7212 14.566 10.8889 14.566 11.2285V13.0482C14.566 13.3878 14.3983 13.5555 14.0586 13.5555H3.56393V18.3312C3.56393 18.6708 3.39621 18.8385 3.05659 18.8385H0.507336C0.167714 18.8385 0 18.6708 0 18.3312V10.3061C0 9.36687 0.100629 8.57022 0.301886 7.91614C0.503143 7.26205 0.8218 6.72956 1.26205 6.31866C1.7023 5.90776 2.27253 5.60587 2.97693 5.41719C3.68133 5.22852 4.53667 5.13208 5.54296 5.13208H14.176V5.14885Z"
    fill="#002dcd"></path>
  <path
    d="M36.0838 5.14868C37.6226 5.14868 38.7211 5.4925 39.3836 6.17593C40.0419 6.85937 40.3731 7.86985 40.3731 9.19898V10.3939C40.3731 11.4757 40.1593 12.3436 39.7274 12.9893C39.2956 13.635 38.5912 14.0711 37.6142 14.2933L40.7673 18.2849C40.8343 18.3771 40.8511 18.4945 40.826 18.6371C40.8008 18.7797 40.6834 18.8509 40.4738 18.8509H37.4591C37.2746 18.8509 37.1446 18.83 37.0566 18.7839C36.9727 18.7377 36.8972 18.6706 36.8302 18.5784L33.9539 14.6623H28.4738V18.3436C28.4738 18.6832 28.3061 18.8509 27.9665 18.8509H25.4214C25.0818 18.8509 24.9141 18.6832 24.9141 18.3436V5.73568C24.9141 5.34575 25.1111 5.14868 25.5011 5.14868H36.0922H36.0838ZM28.4696 11.8614H35.3794C35.9287 11.8614 36.3019 11.7524 36.5031 11.5302C36.7044 11.308 36.805 10.9684 36.805 10.5113V9.66858C36.805 9.21156 36.7044 8.87194 36.5031 8.64972C36.3019 8.4275 35.9245 8.31848 35.3794 8.31848H28.7044C28.5493 8.31848 28.4696 8.40234 28.4696 8.57425V11.8614Z"
    fill="#002dcd"></path>
  <path
    d="M62.2685 5.14868C63.2748 5.14868 64.1302 5.24512 64.8346 5.4338C65.539 5.62247 66.1092 5.92436 66.5494 6.33526C66.9897 6.74616 67.3041 7.27865 67.5096 7.93274C67.715 8.58682 67.8115 9.37927 67.8115 10.3227V13.6895C67.8115 14.6287 67.7108 15.4296 67.5096 16.0878C67.3083 16.7461 66.9897 17.2828 66.5494 17.6937C66.1134 18.1046 65.539 18.4023 64.8346 18.5826C64.1302 18.7671 63.2748 18.8551 62.2685 18.8551H56.1595C55.1532 18.8551 54.3021 18.7629 53.5935 18.5826C52.8891 18.3981 52.3189 18.1046 51.8786 17.6937C51.4384 17.2828 51.1239 16.7461 50.9185 16.0878C50.7172 15.4296 50.6166 14.6287 50.6166 13.6895V10.3227C50.6166 9.38347 50.7172 8.58682 50.9185 7.93274C51.1197 7.27865 51.4384 6.74616 51.8786 6.33526C52.3189 5.92436 52.8891 5.62247 53.5935 5.4338C54.2979 5.24512 55.1532 5.14868 56.1595 5.14868H62.2685ZM54.1847 13.4086C54.1847 13.8531 54.214 14.2178 54.2727 14.5029C54.3314 14.7923 54.4405 15.0187 54.5956 15.1864C54.7507 15.3541 54.9688 15.4757 55.2413 15.5386C55.5138 15.6015 55.8702 15.635 56.2979 15.635H62.1344C62.5662 15.635 62.9184 15.6015 63.191 15.5386C63.4635 15.4757 63.6815 15.3541 63.8367 15.1864C63.9918 15.0187 64.1008 14.7881 64.1595 14.5029C64.2182 14.2178 64.2476 13.8489 64.2476 13.4086V10.591C64.2476 10.1466 64.2182 9.78179 64.1595 9.49667C64.1008 9.20737 63.9918 8.98515 63.8367 8.82162C63.6815 8.6581 63.4635 8.54489 63.191 8.47781C62.9184 8.41072 62.5662 8.38137 62.1344 8.38137H56.2979C55.866 8.38137 55.5138 8.41492 55.2413 8.47781C54.9688 8.5407 54.7507 8.6581 54.5956 8.82162C54.4405 8.98515 54.3314 9.21156 54.2727 9.49667C54.214 9.78179 54.1847 10.1508 54.1847 10.591V13.4086Z"
    fill="#002dcd"></path>
  <path
    d="M116.327 5.14868C116.666 5.14868 116.834 5.3164 116.834 5.65602V7.94532C116.834 8.28494 116.666 8.45265 116.327 8.45265H110.436V18.3394C110.436 18.679 110.268 18.8467 109.928 18.8467H107.404C107.052 18.8467 106.876 18.679 106.876 18.3394V8.45265H101.002C100.662 8.45265 100.495 8.28494 100.495 7.94532V5.65602C100.495 5.3164 100.662 5.14868 101.002 5.14868H116.331H116.327Z"
    fill="#002dcd"></path>
</svg>